<?xml version="1.0" encoding="utf-8"?>
<svg width="44px" height="20px" viewBox="0 0 44 20" version="1.1" xmlns:xlink="http://www.w3.org/1999/xlink" xmlns="http://www.w3.org/2000/svg">
  <g id="off">
    <path d="M6.89555 2.75861L37.1044 2.75861Q37.2737 2.75861 37.4428 2.76691Q37.6119 2.77522 37.7803 2.79181Q37.9488 2.8084 38.1162 2.83324Q38.2837 2.85808 38.4497 2.8911Q38.6157 2.92413 38.7799 2.96526Q38.9441 3.00639 39.1061 3.05553Q39.2681 3.10466 39.4275 3.16169Q39.5869 3.21872 39.7433 3.2835Q39.8996 3.34828 40.0527 3.42065Q40.2057 3.49303 40.355 3.57282Q40.5043 3.65262 40.6495 3.73965Q40.7947 3.82667 40.9354 3.92072Q41.0762 4.01476 41.2121 4.1156Q41.3481 4.21644 41.4789 4.32382Q41.6098 4.43121 41.7352 4.54489Q41.8606 4.65857 41.9803 4.77827Q42.1 4.89796 42.2137 5.02339Q42.3274 5.14881 42.4348 5.27967Q42.5422 5.41052 42.643 5.54648Q42.7438 5.68245 42.8379 5.82319Q42.9319 5.96394 43.019 6.10913Q43.106 6.25433 43.1858 6.40362Q43.2656 6.55291 43.338 6.70593Q43.4103 6.85895 43.4751 7.01534Q43.5399 7.17173 43.5969 7.33112Q43.6539 7.4905 43.7031 7.65248Q43.7522 7.81447 43.7934 7.97867Q43.8345 8.14288 43.8675 8.3089Q43.9005 8.47493 43.9254 8.64237Q43.9502 8.80981 43.9668 8.97828Q43.9834 9.14674 43.9917 9.31581Q44 9.48488 44 9.65416L44 9.65616Q44 9.82543 43.9917 9.99451Q43.9834 10.1636 43.9668 10.332Q43.9502 10.5005 43.9254 10.6679Q43.9005 10.8354 43.8675 11.0014Q43.8345 11.1674 43.7933 11.3316Q43.7522 11.4958 43.7031 11.6578Q43.6539 11.8198 43.5969 11.9792Q43.5399 12.1386 43.4751 12.295Q43.4103 12.4514 43.3379 12.6044Q43.2656 12.7574 43.1858 12.9067Q43.106 13.056 43.019 13.2012Q42.9319 13.3464 42.8379 13.4871Q42.7438 13.6279 42.643 13.7638Q42.5422 13.8998 42.4348 14.0307Q42.3274 14.1615 42.2137 14.2869Q42.1 14.4124 41.9803 14.5321Q41.8606 14.6517 41.7352 14.7654Q41.6098 14.8791 41.4789 14.9865Q41.3481 15.0939 41.2121 15.1947Q41.0762 15.2956 40.9354 15.3896Q40.7947 15.4836 40.6495 15.5707Q40.5043 15.6577 40.355 15.7375Q40.2057 15.8173 40.0527 15.8897Q39.8996 15.962 39.7433 16.0268Q39.5869 16.0916 39.4275 16.1486Q39.2681 16.2057 39.1061 16.2548Q38.9441 16.3039 38.7799 16.3451Q38.6157 16.3862 38.4497 16.4192Q38.2837 16.4522 38.1162 16.4771Q37.9488 16.5019 37.7803 16.5185Q37.6119 16.5351 37.4428 16.5434Q37.2737 16.5517 37.1044 16.5517L6.89555 16.5517Q6.72628 16.5517 6.5572 16.5434Q6.38813 16.5351 6.21967 16.5185Q6.05121 16.5019 5.88376 16.4771Q5.71632 16.4522 5.5503 16.4192Q5.38427 16.3862 5.22007 16.3451Q5.05587 16.3039 4.89388 16.2548Q4.73189 16.2057 4.57251 16.1486Q4.41313 16.0916 4.25674 16.0268Q4.10035 15.962 3.94732 15.8897Q3.7943 15.8173 3.64501 15.7375Q3.49572 15.6577 3.35053 15.5707Q3.20534 15.4836 3.06459 15.3896Q2.92384 15.2956 2.78788 15.1947Q2.65191 15.0939 2.52106 14.9865Q2.39021 14.8791 2.26478 14.7654Q2.13936 14.6517 2.01966 14.532Q1.89996 14.4124 1.78628 14.2869Q1.67261 14.1615 1.56522 14.0307Q1.45783 13.8998 1.35699 13.7638Q1.25615 13.6279 1.16211 13.4871Q1.06807 13.3464 0.98104 13.2012Q0.894014 13.056 0.814218 12.9067Q0.734422 12.7574 0.662047 12.6044Q0.589672 12.4514 0.524893 12.295Q0.460113 12.1386 0.403086 11.9792Q0.346058 11.8198 0.29692 11.6578Q0.247782 11.4958 0.206651 11.3316Q0.16552 11.1674 0.132496 11.0014Q0.0994719 10.8354 0.0746339 10.6679Q0.0497959 10.5005 0.033204 10.332Q0.016612 10.1636 0.00830599 9.99451Q0 9.82543 0 9.65616L0 9.65416Q0 9.48488 0.00830599 9.31581Q0.016612 9.14674 0.033204 8.97828Q0.0497959 8.80981 0.0746339 8.64237Q0.0994719 8.47493 0.132496 8.3089Q0.16552 8.14288 0.206651 7.97867Q0.247782 7.81447 0.29692 7.65248Q0.346058 7.4905 0.403086 7.33112Q0.460113 7.17173 0.524893 7.01534Q0.589672 6.85895 0.662047 6.70593Q0.734422 6.55291 0.814218 6.40362Q0.894014 6.25433 0.98104 6.10913Q1.06807 5.96394 1.16211 5.82319Q1.25615 5.68245 1.35699 5.54648Q1.45783 5.41052 1.56522 5.27967Q1.67261 5.14881 1.78628 5.02339Q1.89996 4.89796 2.01966 4.77827Q2.13936 4.65857 2.26478 4.54489Q2.39021 4.43121 2.52106 4.32382Q2.65191 4.21644 2.78788 4.1156Q2.92384 4.01476 3.06459 3.92072Q3.20534 3.82667 3.35053 3.73965Q3.49572 3.65262 3.64501 3.57282Q3.7943 3.49303 3.94732 3.42065Q4.10035 3.34828 4.25674 3.2835Q4.41313 3.21872 4.57251 3.16169Q4.73189 3.10466 4.89388 3.05553Q5.05587 3.00639 5.22007 2.96526Q5.38427 2.92413 5.5503 2.8911Q5.71632 2.85808 5.88376 2.83324Q6.05121 2.8084 6.21967 2.79181Q6.38813 2.77522 6.5572 2.76691Q6.72628 2.75861 6.89555 2.75861Z" id="Rectangle" fill="#A0A0A0" fill-rule="evenodd" stroke="none" />
    <path d="M0 10C0 4.47715 4.60713 0 10.2903 0C15.9735 0 20.5806 4.47715 20.5806 10C20.5806 15.5228 15.9735 20 10.2903 20C4.60713 20 0 15.5228 0 10Z" id="Ellipse" fill="#D3D3D3" fill-rule="evenodd" stroke="none" />
  </g>
</svg>