<?xml version="1.0" encoding="utf-8"?>
<svg width="44px" height="20px" viewBox="0 0 44 20" version="1.1" xmlns:xlink="http://www.w3.org/1999/xlink" xmlns="http://www.w3.org/2000/svg">
  <g id="on">
    <path d="M6.89555 2.75864L37.1044 2.75864Q37.2737 2.75864 37.4428 2.76694Q37.6118 2.77525 37.7803 2.79184Q37.9488 2.80843 38.1162 2.83327Q38.2837 2.85811 38.4497 2.89113Q38.6157 2.92416 38.7799 2.96529Q38.9441 3.00642 39.1061 3.05556Q39.2681 3.10469 39.4275 3.16172Q39.5868 3.21875 39.7432 3.28353Q39.8996 3.34831 40.0526 3.42068Q40.2057 3.49306 40.355 3.57285Q40.5043 3.65265 40.6494 3.73968Q40.7946 3.8267 40.9354 3.92075Q41.0761 4.01479 41.2121 4.11563Q41.3481 4.21647 41.4789 4.32385Q41.6098 4.43124 41.7352 4.54492Q41.8606 4.6586 41.9803 4.7783Q42.1 4.89799 42.2137 5.02342Q42.3274 5.14884 42.4348 5.2797Q42.5421 5.41055 42.643 5.54651Q42.7438 5.68248 42.8379 5.82322Q42.9319 5.96397 43.0189 6.10917Q43.106 6.25436 43.1858 6.40365Q43.2655 6.55294 43.3379 6.70596Q43.4103 6.85898 43.4751 7.01537Q43.5399 7.17177 43.5969 7.33115Q43.6539 7.49053 43.7031 7.65251Q43.7522 7.8145 43.7933 7.9787Q43.8344 8.14291 43.8675 8.30893Q43.9005 8.47496 43.9253 8.6424Q43.9502 8.80984 43.9668 8.97831Q43.9834 9.14677 43.9917 9.31584Q44 9.48491 44 9.65419L44 9.65619Q44 9.82547 43.9917 9.99454Q43.9834 10.1636 43.9668 10.3321Q43.9502 10.5005 43.9253 10.668Q43.9005 10.8354 43.8675 11.0014Q43.8344 11.1675 43.7933 11.3317Q43.7522 11.4959 43.7031 11.6579Q43.6539 11.8198 43.5969 11.9792Q43.5399 12.1386 43.4751 12.295Q43.4103 12.4514 43.3379 12.6044Q43.2655 12.7574 43.1858 12.9067Q43.106 13.056 43.0189 13.2012Q42.9319 13.3464 42.8379 13.4871Q42.7438 13.6279 42.643 13.7639Q42.5421 13.8998 42.4348 14.0307Q42.3274 14.1615 42.2137 14.287Q42.1 14.4124 41.9803 14.5321Q41.8606 14.6518 41.7352 14.7655Q41.6098 14.8791 41.4789 14.9865Q41.3481 15.0939 41.2121 15.1947Q41.0761 15.2956 40.9354 15.3896Q40.7946 15.4837 40.6494 15.5707Q40.5043 15.6577 40.355 15.7375Q40.2057 15.8173 40.0526 15.8897Q39.8996 15.9621 39.7432 16.0268Q39.5868 16.0916 39.4275 16.1487Q39.2681 16.2057 39.1061 16.2548Q38.9441 16.304 38.7799 16.3451Q38.6157 16.3862 38.4497 16.4192Q38.2837 16.4523 38.1162 16.4771Q37.9488 16.5019 37.7803 16.5185Q37.6118 16.5351 37.4428 16.5434Q37.2737 16.5517 37.1044 16.5517L6.89555 16.5517Q6.72628 16.5517 6.5572 16.5434Q6.38813 16.5351 6.21967 16.5185Q6.05121 16.5019 5.88376 16.4771Q5.71632 16.4523 5.5503 16.4192Q5.38427 16.3862 5.22007 16.3451Q5.05587 16.304 4.89388 16.2548Q4.73189 16.2057 4.57251 16.1487Q4.41313 16.0916 4.25674 16.0268Q4.10035 15.9621 3.94732 15.8897Q3.7943 15.8173 3.64501 15.7375Q3.49572 15.6577 3.35053 15.5707Q3.20534 15.4837 3.06459 15.3896Q2.92384 15.2956 2.78788 15.1947Q2.65191 15.0939 2.52106 14.9865Q2.39021 14.8791 2.26478 14.7655Q2.13936 14.6518 2.01966 14.5321Q1.89996 14.4124 1.78628 14.287Q1.67261 14.1615 1.56522 14.0307Q1.45783 13.8998 1.35699 13.7639Q1.25615 13.6279 1.16211 13.4872Q1.06807 13.3464 0.98104 13.2012Q0.894014 13.056 0.814218 12.9067Q0.734422 12.7574 0.662047 12.6044Q0.589672 12.4514 0.524893 12.295Q0.460113 12.1386 0.403086 11.9792Q0.346058 11.8198 0.29692 11.6579Q0.247782 11.4959 0.206651 11.3317Q0.16552 11.1675 0.132496 11.0014Q0.0994719 10.8354 0.0746339 10.668Q0.0497959 10.5005 0.033204 10.3321Q0.016612 10.1636 0.00830599 9.99454Q0 9.82547 0 9.65619L0 9.65419Q0 9.48491 0.00830599 9.31584Q0.016612 9.14677 0.033204 8.97831Q0.0497959 8.80984 0.0746339 8.6424Q0.0994719 8.47496 0.132496 8.30893Q0.16552 8.14291 0.206651 7.9787Q0.247782 7.8145 0.29692 7.65251Q0.346058 7.49053 0.403086 7.33115Q0.460113 7.17177 0.524893 7.01537Q0.589672 6.85898 0.662047 6.70596Q0.734422 6.55294 0.814218 6.40365Q0.894014 6.25436 0.98104 6.10917Q1.06807 5.96397 1.16211 5.82322Q1.25615 5.68248 1.35699 5.54651Q1.45783 5.41055 1.56522 5.2797Q1.67261 5.14884 1.78628 5.02342Q1.89996 4.89799 2.01966 4.7783Q2.13936 4.6586 2.26478 4.54492Q2.39021 4.43124 2.52106 4.32385Q2.65191 4.21647 2.78788 4.11563Q2.92384 4.01479 3.06459 3.92075Q3.20534 3.8267 3.35053 3.73968Q3.49572 3.65265 3.64501 3.57285Q3.7943 3.49306 3.94732 3.42068Q4.10035 3.34831 4.25674 3.28353Q4.41313 3.21875 4.57251 3.16172Q4.73189 3.10469 4.89388 3.05556Q5.05587 3.00642 5.22007 2.96529Q5.38427 2.92416 5.5503 2.89113Q5.71632 2.85811 5.88376 2.83327Q6.05121 2.80843 6.21967 2.79184Q6.38813 2.77525 6.5572 2.76694Q6.72628 2.75864 6.89555 2.75864Z" id="Rectangle" fill="#24252E" fill-rule="evenodd" stroke="none" />
    <path d="M23.4194 10C23.4194 4.47715 28.0265 0 33.7097 0C39.3929 0 44 4.47715 44 10C44 15.5228 39.3929 20 33.7097 20C28.0265 20 23.4194 15.5228 23.4194 10Z" id="Ellipse" fill="#D3D3D3" fill-rule="evenodd" stroke="none" />
  </g>
</svg>